<?xml version="1.0" encoding="UTF-8"?>
<!DOCTYPE svg PUBLIC "-//W3C//DTD SVG 1.1//EN" "http://www.w3.org/Graphics/SVG/1.1/DTD/svg11.dtd">
<!-- Creator: CorelDRAW X8 -->
<svg xmlns="http://www.w3.org/2000/svg" xml:space="preserve" width="100mm" height="50mm" version="1.1" style="shape-rendering:geometricPrecision; text-rendering:geometricPrecision; image-rendering:optimizeQuality; fill-rule:evenodd; clip-rule:evenodd"
viewBox="0 0 10000 5000"
 xmlns:xlink="http://www.w3.org/1999/xlink"
 xmlns:dc="http://purl.org/dc/elements/1.1/"
 xmlns:cc="http://web.resource.org/cc/"
 xmlns:rdf="http://www.w3.org/1999/02/22-rdf-syntax-ns#"
 xmlns:svg="http://www.w3.org/2000/svg"
 xmlns:sodipodi="http://inkscape.sourceforge.net/DTD/sodipodi-0.dtd"
 xmlns:inkscape="http://www.inkscape.org/namespaces/inkscape"
 sodipodi:version="0.32"
 inkscape:version="0.43"
 sodipodi:docname="Flag_of_Italy.svg"
 sodipodi:docbase="/files/home/paulatto">
 <defs>
  <style type="text/css">
   <![CDATA[
    .fil6 {fill:#008D46}
    .fil8 {fill:#D2232C}
    .fil7 {fill:white}
    .fil2 {fill:#898989;fill-rule:nonzero}
    .fil0 {fill:#727271;fill-rule:nonzero}
    .fil3 {fill:#5B5B5B;fill-rule:nonzero}
    .fil1 {fill:#E31E24;fill-rule:nonzero}
    .fil4 {fill:#1214FF;fill-rule:nonzero}
    .fil5 {fill:#FF7F00;fill-rule:nonzero}
   ]]>
  </style>
 </defs>
 <g id="Layer_x0020_1">
  <metadata id="CorelCorpID_0Corel-Layer"/>
  <polygon class="fil0" points="3250,998 3633,2099 3824,1557 3871,1557 3799,1330 3841,1330 3917,1557 3952,1557 4110,2048 4138,1970 4173,1970 4541,1000 4584,1000 4219,1970 4260,1970 4175,2159 4037,2159 3849,1627 3653,2159 3609,2159 3205,998 "/>
  <polygon id="1" class="fil0" points="5132,1660 4772,1660 4772,2159 4642,2159 4642,1330 4687,1330 4687,998 4732,998 4732,1330 4772,1330 4772,1552 5132,1552 5132,1583 5402,1583 5402,998 5448,998 5448,1918 5402,1918 5402,1628 5132,1628 "/>
  <polygon id="2" class="fil1" points="6063,1484 5904,1235 5962,1235 5500,518 5553,518 6016,1235 6072,1235 6141,1348 6366,987 6427,987 6574,752 6628,752 6480,987 6529,987 6215,1484 6215,2159 6063,2159 "/>
  <path class="fil2" d="M5096 2714l-56 0 78 99 -84 0 -81 -99 -53 0 -51 -61 0 451 -67 0 0 594 -81 0 0 -594 -75 0 0 -704 223 0 247 314zm254 395l680 842 0 -1561 75 0 0 1655 -95 0 -747 -936 87 0z"/>
  <polygon id="1" class="fil2" points="9894,2533 9181,2533 9181,3071 9114,3071 9114,4045 9033,4045 9033,3071 8963,3071 8963,2580 8350,2580 8350,2416 9181,2416 9181,2470 9894,2470 "/>
  <path id="2" class="fil1" d="M8012 3705c62,-69 109,-145 141,-229 33,-84 49,-173 49,-266 0,-110 -22,-213 -67,-310 -45,-97 -106,-181 -184,-253 -79,-71 -171,-127 -276,-169 -105,-41 -217,-62 -337,-62l-17 0 0 54c-110,2 -213,22 -309,61 -96,39 -179,92 -251,160 -72,67 -129,146 -171,236 -42,90 -63,186 -63,287l-61 0c0,69 10,135 29,199 19,63 43,122 75,177l-71 0c-31,-55 -56,-114 -74,-177 -18,-64 -26,-130 -26,-199l-62 0c0,-123 26,-240 77,-348 51,-109 122,-204 210,-286 89,-81 193,-145 312,-192 120,-47 249,-71 387,-73l0 45 17 0c128,0 250,22 364,67 114,44 213,105 298,183 85,77 152,167 202,270 49,102 74,212 74,330 0,93 -16,182 -48,265 -31,83 -76,160 -134,230l81 0c-89,120 -206,216 -349,288 -144,71 -303,106 -479,106l-16 0 0 -44c-62,0 -122,-5 -179,-14l0 -57c29,5 59,9 88,12 29,3 59,5 91,5l0 -57 16 0c118,0 227,-21 329,-64 102,-43 190,-101 264,-175l70 0z"/>
  <polygon class="fil1" points="936,2895 936,2285 576,3008 531,3008 426,2788 399,2788 201,2411 201,2573 174,2573 174,3002 136,3002 136,2573 106,2573 106,2253 210,2253 492,2788 461,2788 553,2977 914,2249 971,2249 971,2895 "/>
  <polygon id="1" class="fil1" points="1274,2410 1369,2410 1635,3002 1553,3002 1321,2490 1193,2774 1388,2774 1388,2796 1158,2796 1069,3002 1041,3002 1133,2785 1106,2785 "/>
  <path id="2" class="fil1" d="M2038 2724l190 278 -38 0 -183 -278 -247 0 0 89 -20 0 0 189 -27 0 0 -189 -20 0 0 -409 206 0 0 13 170 0c28,0 53,4 74,12 22,9 39,20 53,34 14,13 25,28 33,46 7,17 11,35 11,53 0,17 -4,35 -10,53 -7,17 -18,34 -32,48 -14,15 -31,28 -52,39 -21,11 -46,19 -75,22l-33 0zm-278 -24l307 0c23,-4 44,-11 62,-20 17,-9 32,-19 44,-32 12,-12 22,-25 28,-40 6,-15 9,-30 9,-45 0,-13 -1,-23 -4,-30 -6,-26 -21,-48 -43,-65 -23,-18 -54,-27 -94,-27l-170 0 0 18 -139 0 0 241z"/>
  <path id="3" class="fil1" d="M2829 2943c11,-2 23,-7 37,-15 13,-8 23,-16 29,-24l32 0c-4,6 -10,13 -18,21 -8,7 -17,14 -26,20 -10,7 -19,12 -29,17 -10,4 -18,7 -25,8l0 15 -33 10c-8,2 -18,4 -30,7 -11,2 -23,4 -35,6 -12,2 -24,3 -36,4 -11,1 -22,2 -32,2 -49,0 -95,-8 -137,-24 -43,-16 -80,-38 -113,-66 -32,-28 -57,-60 -76,-98 -20,-38 -29,-78 -30,-121l17 0 0 -2c0,-41 9,-80 27,-116 18,-36 43,-68 73,-94 31,-27 66,-48 107,-63 41,-15 84,-23 131,-23 55,0 102,7 142,22 41,16 76,41 108,78l-31 -1c-28,-28 -60,-48 -94,-60 -35,-13 -75,-19 -122,-19 -43,0 -84,7 -121,22 -38,15 -71,34 -99,59 -29,25 -51,55 -67,88 -17,34 -25,70 -25,108l0 1 19 0c1,34 9,67 25,98 16,31 37,58 63,81 27,24 57,42 92,56 34,14 71,21 111,21l5 0c12,0 32,-3 60,-8 27,-6 61,-16 101,-30l0 20z"/>
  <path id="4" class="fil1" d="M3560 2882c22,-24 39,-51 51,-80 12,-29 18,-60 18,-93 0,-39 -8,-75 -25,-109 -16,-34 -38,-63 -66,-88 -28,-25 -61,-45 -99,-60 -38,-14 -78,-21 -121,-21l-6 0 0 19c-40,0 -77,7 -111,21 -35,14 -65,32 -91,56 -25,24 -46,51 -61,83 -15,31 -22,65 -22,100l-23 0c0,25 4,48 11,70 7,22 16,43 27,62l-26 0c-11,-19 -20,-40 -26,-62 -7,-22 -10,-45 -10,-70l-22 0c0,-43 9,-84 28,-122 18,-38 44,-71 75,-100 32,-28 70,-51 113,-67 42,-17 89,-25 138,-26l0 16 6 0c47,0 90,8 131,23 41,16 77,37 108,65 30,27 54,58 72,94 18,36 27,75 27,116 0,33 -6,64 -17,93 -12,29 -28,56 -49,80l30 0c-33,43 -75,76 -126,101 -52,25 -109,38 -172,38l-6 0 0 -16c-22,0 -44,-2 -64,-5l0 -20c10,2 21,3 31,4 11,1 22,2 33,2l0 -20 6 0c42,0 82,-7 118,-22 37,-15 68,-36 95,-62l25 0z"/>
  <path id="5" class="fil1" d="M3900 2535l-20 0 28 35 -30 0 -29 -35 -19 0 -19 -21 0 158 -24 0 0 208 -29 0 0 -208 -27 0 0 -247 80 0 89 110zm91 138l245 296 0 -547 27 0 0 580 -34 0 -269 -329 31 0z"/>
  <polygon id="6" class="fil1" points="4465,2426 4465,2880 4490,2880 4490,3002 4411,3002 4411,2880 4438,2881 4438,2427 "/>
  <path class="fil3" d="M5025 4482l-184 0 0 -86c0,-17 4,-31 12,-41 8,-11 20,-17 36,-17 12,0 22,3 30,10 9,6 14,15 17,27l0 0c3,-20 17,-31 42,-33 14,-1 23,-1 24,-2 11,-1 19,-3 23,-7l0 20c-4,3 -14,4 -29,5 -17,1 -29,3 -36,7 -11,5 -17,16 -17,31l0 68 82 0 0 18zm-169 -18l72 0 0 -67c0,-11 -3,-21 -10,-29 -6,-8 -15,-12 -25,-12 -12,0 -21,4 -27,11 -7,7 -10,17 -10,30l0 67z"/>
  <path id="1" class="fil3" d="M4933 4316c-27,0 -49,-8 -67,-22 -19,-17 -29,-39 -29,-67 0,-29 10,-51 29,-67 18,-15 40,-22 67,-22 27,0 49,7 66,22 20,16 29,38 29,67 0,28 -9,50 -29,67 -17,14 -39,22 -66,22zm0 -18c22,0 40,-6 55,-17 17,-13 26,-31 26,-54 0,-24 -9,-42 -26,-55 -15,-11 -33,-16 -55,-16 -22,0 -41,5 -56,16 -16,13 -25,31 -25,55 0,23 9,41 25,54 15,11 34,17 56,17z"/>
  <polygon id="2" class="fil3" points="5025,4060 4841,4130 4841,4111 5005,4050 5005,4049 4841,3988 4841,3969 5025,4039 "/>
  <polygon id="3" class="fil3" points="5025,3953 4841,3953 4841,3822 4856,3822 4856,3935 4922,3935 4922,3829 4937,3829 4937,3935 5010,3935 5010,3821 5025,3821 "/>
  <path id="4" class="fil3" d="M5025 3796l-184 0 0 -87c0,-17 4,-30 12,-40 8,-12 20,-17 36,-17 12,0 22,3 30,9 9,6 14,16 17,27l0 0c3,-20 17,-31 42,-33 14,-1 23,-1 24,-1 11,-2 19,-4 23,-7l0 19c-4,3 -14,5 -29,6 -17,1 -29,3 -36,6 -11,6 -17,16 -17,31l0 69 82 0 0 18zm-169 -18l72 0 0 -68c0,-11 -3,-21 -10,-29 -6,-7 -15,-11 -25,-11 -12,0 -21,3 -27,10 -7,7 -10,17 -10,30l0 68z"/>
  <polygon id="5" class="fil3" points="5025,3619 4841,3619 4841,3489 4856,3489 4856,3601 4922,3601 4922,3496 4937,3496 4937,3601 5010,3601 5010,3487 5025,3487 "/>
  <polygon id="6" class="fil3" points="4856,3483 4841,3483 4841,3333 4856,3333 4856,3399 5025,3399 5025,3417 4856,3417 "/>
  <path id="7" class="fil3" d="M4933 3325c-27,0 -49,-7 -67,-22 -19,-16 -29,-39 -29,-67 0,-28 10,-51 29,-67 18,-15 40,-22 67,-22 27,0 49,7 66,22 20,16 29,39 29,67 0,28 -9,51 -29,67 -17,15 -39,22 -66,22zm0 -18c22,0 40,-6 55,-17 17,-13 26,-31 26,-54 0,-23 -9,-42 -26,-54 -15,-12 -33,-17 -55,-17 -22,0 -41,5 -56,17 -16,12 -25,31 -25,54 0,23 9,41 25,54 15,11 34,17 56,17z"/>
  <path class="fil4" d="M351 4641c0,5 -2,7 -6,7l-133 0c-11,0 -21,-4 -28,-12 -8,-8 -12,-17 -12,-29l0 -120c0,-5 2,-7 6,-7l15 0c4,0 7,2 7,7l0 120c0,4 1,7 3,9 3,3 6,4 9,4l133 0c4,0 6,2 6,6l0 15z"/>
  <path id="1" class="fil4" d="M565 4610c0,11 -4,20 -11,27 -7,7 -16,11 -26,11l-117 0c-10,0 -19,-4 -27,-11 -7,-7 -11,-16 -11,-27l0 -58c0,-10 4,-19 11,-26 8,-8 17,-11 27,-11l117 0c10,0 19,3 26,11 7,7 11,16 11,26l0 58zm-28 0l0 -58c0,-2 -1,-4 -3,-6 -2,-2 -4,-3 -6,-3l-117 0c-3,0 -5,1 -7,3 -2,2 -3,4 -3,6l0 58c0,3 1,5 3,7 2,2 4,3 7,3l117 0c2,0 4,-1 6,-3 2,-2 3,-4 3,-7z"/>
  <path id="2" class="fil4" d="M764 4536c0,5 -2,7 -6,7l-124 0c-3,0 -5,1 -7,3 -2,2 -3,4 -3,6l0 89c0,5 -2,7 -6,7l-15 0c-4,0 -7,-2 -7,-7l0 -89c0,-10 4,-19 11,-26 8,-8 16,-11 27,-11l124 0c4,0 6,2 6,6l0 15z"/>
  <path id="3" class="fil4" d="M976 4564c0,10 -3,19 -11,26 -7,8 -16,11 -26,11l-123 0c-2,0 -3,1 -3,3l0 6c0,3 1,5 2,7 2,2 5,3 7,3l141 0c5,0 7,2 7,6l0 15c0,5 -2,7 -7,7l-141 0c-10,0 -19,-4 -26,-11 -8,-7 -11,-16 -11,-27l0 -58c0,-10 3,-19 11,-26 7,-8 16,-11 26,-11l117 0c10,0 19,3 26,11 8,7 11,16 11,26l0 12zm-28 0l0 -12c0,-2 -1,-5 -2,-6 -2,-2 -4,-3 -7,-3l-117 0c-2,0 -5,1 -7,3 -1,1 -2,4 -2,6l0 18c0,2 1,3 3,3l123 0c3,0 5,-1 7,-3 1,-2 2,-4 2,-6z"/>
  <path id="4" class="fil4" d="M1198 4641c0,5 -2,7 -7,7l-15 0c-4,0 -6,-2 -6,-7l0 -62c0,-10 -4,-19 -10,-26 -7,-7 -16,-10 -26,-10l-90 0c-3,0 -5,1 -7,3 -2,2 -3,4 -3,6l0 89c0,5 -2,7 -6,7l-15 0c-4,0 -7,-2 -7,-7l0 -89c0,-10 4,-19 11,-26 8,-8 16,-11 27,-11l90 0c18,0 33,6 45,18 13,13 19,28 19,46l0 62z"/>
  <path id="5" class="fil4" d="M1430 4641c0,5 -2,7 -7,7l-175 0c-6,0 -11,-2 -15,-6 -4,-4 -6,-9 -6,-15 0,-9 4,-15 12,-19l132 -63c1,0 1,0 1,-1 0,-1 0,-1 -1,-1l-138 0c-4,0 -6,-2 -6,-7l0 -15c0,-4 2,-6 6,-6l175 0c6,0 11,2 15,6 4,4 6,9 6,15 0,9 -4,15 -12,19l-132 63c-1,0 -1,0 -1,1 0,0 1,1 2,1l137 0c5,0 7,2 7,6l0 15z"/>
  <path id="6" class="fil4" d="M1488 4499c0,4 -2,7 -7,7l-14 0c-5,0 -7,-3 -7,-7l0 -12c0,-5 2,-7 7,-7l14 0c5,0 7,2 7,7l0 12zm0 144c0,5 -2,7 -7,7l-14 0c-5,0 -7,-2 -7,-7l0 -122c0,-4 2,-6 7,-6l14 0c5,0 7,2 7,6l0 122z"/>
  <path id="7" class="fil4" d="M1714 4641c0,5 -3,7 -7,7l-15 0c-4,0 -6,-2 -6,-7l0 -62c0,-10 -4,-19 -11,-26 -7,-7 -15,-10 -25,-10l-90 0c-3,0 -5,1 -7,3 -2,2 -3,4 -3,6l0 89c0,5 -2,7 -6,7l-15 0c-5,0 -7,-2 -7,-7l0 -89c0,-10 4,-19 11,-26 7,-8 16,-11 27,-11l90 0c17,0 32,6 45,18 12,13 19,28 19,46l0 62z"/>
  <path id="8" class="fil4" d="M1776 4499c0,4 -2,7 -7,7l-15 0c-4,0 -6,-3 -6,-7l0 -12c0,-5 2,-7 6,-7l15 0c5,0 7,2 7,7l0 12zm0 144c0,5 -2,7 -7,7l-15 0c-4,0 -6,-2 -6,-7l0 -122c0,-4 2,-6 6,-6l15 0c5,0 7,2 7,6l0 122z"/>
  <path id="9" class="fil4" d="M333 4830c0,9 -3,17 -10,23 -6,7 -14,10 -23,10l-128 0c-4,0 -6,-2 -6,-6l0 -12c0,-4 2,-5 6,-5l128 0c3,0 5,-1 7,-3 2,-2 3,-5 3,-8l0 -14c0,-2 -1,-5 -3,-7 -2,-2 -4,-3 -7,-3l-100 0c-10,0 -17,-3 -24,-10 -6,-6 -10,-14 -10,-23l0 -14c0,-9 4,-17 10,-23 7,-7 14,-10 24,-10l128 0c3,0 5,2 5,5l0 12c0,4 -2,6 -5,6l-128 0c-3,0 -6,1 -8,3 -2,2 -3,4 -3,7l0 14c0,3 1,5 3,7 2,2 5,3 8,3l100 0c9,0 17,3 23,10 7,6 10,14 10,23l0 15z"/>
  <path id="10" class="fil4" d="M514 4794c0,8 -3,15 -9,21 -6,6 -14,9 -22,9l-101 0c-2,0 -3,1 -3,3l0 5c0,2 1,4 3,5 1,2 3,3 5,3l116 0c4,0 5,1 5,5l0 12c0,4 -1,6 -5,6l-116 0c-8,0 -16,-3 -22,-9 -6,-6 -9,-13 -9,-22l0 -48c0,-8 3,-16 9,-22 6,-6 14,-9 22,-9l96 0c8,0 16,3 22,9 6,6 9,14 9,22l0 10zm-23 0l0 -10c0,-2 -1,-4 -3,-5 -1,-2 -3,-2 -5,-2l-96 0c-2,0 -4,0 -5,2 -2,1 -3,3 -3,5l0 15c0,1 1,2 3,2l101 0c2,0 4,0 5,-2 2,-1 3,-3 3,-5z"/>
  <path id="11" class="fil4" d="M675 4771c0,4 -2,6 -5,6l-102 0c-2,0 -4,0 -5,2 -2,1 -3,3 -3,5l0 73c0,4 -2,6 -5,6l-12 0c-4,0 -6,-2 -6,-6l0 -73c0,-8 3,-16 9,-22 6,-6 14,-9 22,-9l102 0c3,0 5,2 5,6l0 12z"/>
  <path id="12" class="fil4" d="M830 4771c0,4 -2,6 -6,6l-101 0c-3,0 -4,0 -6,2 -2,1 -2,3 -2,5l0 73c0,4 -2,6 -6,6l-12 0c-3,0 -5,-2 -5,-6l0 -73c0,-8 3,-16 9,-22 6,-6 13,-9 22,-9l101 0c4,0 6,2 6,6l0 12z"/>
  <path id="13" class="fil4" d="M1004 4832c0,9 -3,16 -9,22 -6,6 -13,9 -21,9l-96 0c-8,0 -16,-3 -22,-9 -6,-6 -9,-13 -9,-22l0 -9c0,-9 3,-16 9,-22 6,-6 14,-9 22,-9l101 0c2,0 3,-1 3,-3l0 -5c0,-2 -1,-4 -3,-5 -1,-2 -3,-2 -5,-2l-121 0c-4,0 -6,-2 -6,-6l0 -12c0,-4 2,-6 6,-6l121 0c8,0 15,3 21,9 6,6 9,14 9,22l0 48zm-22 0l0 -14c0,-2 -1,-3 -3,-3l-101 0c-2,0 -4,1 -5,2 -2,2 -3,3 -3,5l0 10c0,2 1,4 3,5 1,2 3,3 5,3l96 0c2,0 4,-1 5,-3 2,-1 3,-3 3,-5z"/>
  <path id="14" class="fil4" d="M1207 4857c0,4 -1,6 -5,6l-12 0c-4,0 -5,-2 -5,-6l0 -73c0,-2 -1,-4 -3,-5 -1,-2 -3,-2 -5,-2l-43 0c-2,0 -3,0 -3,2l0 78c0,4 -2,6 -5,6l-13 0c-3,0 -5,-2 -5,-6l0 -78c0,-2 -1,-2 -3,-2l-43 0c-2,0 -4,0 -6,2 -1,1 -2,3 -2,5l0 73c0,4 -2,6 -5,6l-12 0c-4,0 -6,-2 -6,-6l0 -73c0,-8 3,-16 9,-22 6,-6 14,-9 22,-9l115 0c8,0 15,3 21,9 6,6 9,14 9,22l0 73z"/>
  <path id="15" class="fil4" d="M1391 4794c0,8 -3,15 -9,21 -7,6 -14,9 -22,9l-101 0c-2,0 -3,1 -3,3l0 5c0,2 1,4 3,5 1,2 3,3 5,3l116 0c4,0 5,1 5,5l0 12c0,4 -1,6 -5,6l-116 0c-8,0 -16,-3 -22,-9 -6,-6 -9,-13 -9,-22l0 -48c0,-8 3,-16 9,-22 6,-6 14,-9 22,-9l96 0c8,0 15,3 22,9 6,6 9,14 9,22l0 10zm-23 0l0 -10c0,-2 -1,-4 -3,-5 -1,-2 -3,-2 -5,-2l-96 0c-2,0 -4,0 -5,2 -2,1 -3,3 -3,5l0 15c0,1 1,2 3,2l101 0c2,0 4,0 5,-2 2,-1 3,-3 3,-5z"/>
  <path id="16" class="fil4" d="M1572 4857c0,4 -1,6 -5,6l-12 0c-4,0 -5,-2 -5,-6l0 -51c0,-8 -3,-15 -9,-21 -6,-6 -13,-8 -21,-8l-74 0c-2,0 -4,0 -6,2 -1,1 -2,3 -2,5l0 73c0,4 -2,6 -5,6l-12 0c-4,0 -6,-2 -6,-6l0 -73c0,-8 3,-16 9,-22 6,-6 14,-9 22,-9l74 0c15,0 27,6 37,16 10,10 15,22 15,37l0 51z"/>
  <path id="17" class="fil4" d="M1735 4857c0,4 -2,6 -5,6l-99 0c-8,0 -16,-3 -22,-9 -6,-6 -9,-13 -9,-22l0 -102c0,-3 2,-5 6,-5l12 0c3,0 5,2 5,5l0 21c0,2 1,2 3,2l103 0c4,0 6,2 6,6l0 12c0,4 -2,6 -6,6l-103 0c-2,0 -3,0 -3,2l0 53c0,2 1,4 2,5 2,2 4,3 6,3l99 0c3,0 5,1 5,5l0 12z"/>
  <path id="18" class="fil4" d="M1777 4740c0,4 -2,6 -6,6l-12 0c-3,0 -5,-2 -5,-6l0 -10c0,-3 2,-5 5,-5l12 0c4,0 6,2 6,5l0 10zm0 119c0,3 -2,5 -6,5l-12 0c-3,0 -5,-2 -5,-5l0 -100c0,-4 2,-6 5,-6l12 0c4,0 6,2 6,6l0 100z"/>
  <path class="fil5" d="M397 283c0,11 -4,21 -11,29 -8,8 -18,11 -29,11l-122 0c-11,0 -21,-3 -29,-11 -8,-8 -12,-18 -12,-29l0 -87c0,-11 4,-21 12,-29 8,-8 18,-12 29,-12l156 0c4,0 6,3 6,7l0 15c0,4 -2,7 -6,7l-156 0c-4,0 -7,1 -9,3 -2,3 -4,6 -4,9l0 87c0,3 2,6 4,9 2,2 5,3 9,3l122 0c3,0 6,-1 9,-3 2,-3 4,-6 4,-9l0 -17c0,-4 -2,-7 -4,-9 -3,-2 -6,-4 -9,-4l-74 0c-5,0 -7,-2 -7,-6l0 -15c0,-5 2,-7 7,-7l74 0c11,0 21,4 29,12 7,8 11,17 11,29l0 17z"/>
  <path id="1" class="fil5" d="M619 286c0,10 -4,19 -12,27 -7,7 -16,10 -26,10l-116 0c-11,0 -20,-3 -27,-10 -7,-8 -11,-17 -11,-27l0 -11c0,-11 4,-20 11,-27 7,-7 16,-11 27,-11l122 0c3,0 4,-1 4,-3l0 -6c0,-3 -1,-5 -3,-7 -2,-2 -4,-3 -7,-3l-147 0c-5,0 -7,-2 -7,-6l0 -15c0,-4 2,-7 7,-7l147 0c10,0 19,4 26,11 8,8 12,16 12,27l0 58zm-28 0l0 -18c0,-2 -1,-3 -4,-3l-122 0c-3,0 -5,1 -7,3 -2,2 -3,4 -3,6l0 12c0,3 1,5 3,7 2,1 4,2 7,2l116 0c3,0 5,-1 7,-2 2,-2 3,-4 3,-7z"/>
  <path id="2" class="fil5" d="M839 286c0,10 -4,19 -11,27 -8,7 -16,10 -27,10l-141 0c-4,0 -7,-2 -7,-6l0 -15c0,-4 3,-7 7,-7l142 0c2,0 4,-1 6,-2 2,-2 3,-4 3,-7l0 -6c0,-2 -1,-4 -3,-6 -2,-2 -4,-3 -6,-3l-117 0c-11,0 -19,-4 -27,-11 -7,-7 -11,-16 -11,-27l0 -5c0,-11 4,-19 11,-27 8,-7 16,-11 27,-11l141 0c4,0 7,3 7,7l0 15c0,4 -3,6 -7,6l-141 0c-3,0 -5,1 -7,3 -2,2 -3,4 -3,7l0 5c0,3 1,5 3,7 2,2 4,3 7,3l116 0c11,0 19,3 27,11 7,7 11,16 11,26l0 6z"/>
  <path id="3" class="fil5" d="M1062 177c0,4 -2,7 -7,7l-71 0c-3,0 -4,1 -4,3l0 130c0,4 -2,6 -6,6l-15 0c-4,0 -7,-2 -7,-6l0 -130c0,-2 -1,-3 -3,-3l-84 0c-4,0 -6,-3 -6,-7l0 -15c0,-4 2,-7 6,-7l190 0c5,0 7,3 7,7l0 15z"/>
  <path id="4" class="fil5" d="M1276 239c0,11 -3,20 -11,27 -7,7 -16,11 -26,11l-123 0c-2,0 -3,1 -3,3l0 6c0,3 1,5 2,7 2,1 5,2 7,2l141 0c5,0 7,3 7,7l0 15c0,4 -2,6 -7,6l-141 0c-10,0 -19,-3 -26,-10 -8,-8 -11,-17 -11,-27l0 -58c0,-11 3,-19 11,-27 7,-7 16,-11 26,-11l117 0c10,0 19,4 26,11 8,8 11,16 11,27l0 11zm-28 0l0 -11c0,-3 -1,-5 -2,-7 -2,-2 -4,-3 -7,-3l-117 0c-2,0 -5,1 -7,3 -1,2 -2,4 -2,7l0 17c0,3 1,4 3,4l123 0c3,0 5,-1 7,-3 1,-2 2,-4 2,-7z"/>
  <path id="5" class="fil5" d="M1498 317c0,4 -2,6 -7,6l-147 0c-11,0 -19,-3 -27,-10 -7,-8 -11,-17 -11,-27l0 -58c0,-11 4,-19 11,-27 8,-7 16,-11 27,-11l147 0c5,0 7,3 7,7l0 15c0,4 -2,6 -7,6l-147 0c-3,0 -5,1 -7,3 -2,2 -3,4 -3,7l0 58c0,3 1,5 3,7 2,1 4,2 7,2l147 0c5,0 7,3 7,7l0 15z"/>
  <path id="6" class="fil5" d="M1714 317c0,4 -2,6 -6,6l-15 0c-4,0 -6,-2 -6,-6l0 -63c0,-9 -4,-18 -11,-25 -7,-7 -15,-11 -25,-11l-91 0c-2,0 -5,1 -6,3 -2,2 -3,4 -3,7l0 89c0,4 -2,6 -7,6l-14 0c-5,0 -7,-2 -7,-6l0 -89c0,-11 4,-19 11,-27 7,-7 16,-11 26,-11l91 0c17,0 32,7 45,19 12,12 18,27 18,45l0 63z"/>
  <path id="7" class="fil5" d="M1776 175c0,4 -2,6 -6,6l-15 0c-4,0 -6,-2 -6,-6l0 -13c0,-4 2,-7 6,-7l15 0c4,0 6,3 6,7l0 13zm0 144c0,4 -2,6 -6,6l-15 0c-4,0 -6,-2 -6,-6l0 -122c0,-4 2,-7 6,-7l15 0c4,0 6,3 6,7l0 122z"/>
  <path id="8" class="fil5" d="M2002 317c0,4 -2,6 -7,6l-147 0c-10,0 -19,-3 -26,-10 -8,-8 -11,-17 -11,-27l0 -58c0,-11 3,-19 11,-27 7,-7 16,-11 26,-11l147 0c5,0 7,3 7,7l0 15c0,4 -2,6 -7,6l-147 0c-3,0 -5,1 -7,3 -2,2 -2,4 -2,7l0 58c0,3 0,5 2,7 2,1 4,2 7,2l147 0c5,0 7,3 7,7l0 15z"/>
  <path id="9" class="fil5" d="M2219 286c0,10 -4,19 -11,27 -8,7 -17,10 -27,10l-116 0c-11,0 -20,-3 -27,-10 -7,-8 -11,-17 -11,-27l0 -11c0,-11 4,-20 11,-27 7,-7 16,-11 27,-11l123 0c2,0 3,-1 3,-3l0 -6c0,-3 -1,-5 -3,-7 -2,-2 -4,-3 -7,-3l-147 0c-5,0 -7,-2 -7,-6l0 -15c0,-4 2,-7 7,-7l147 0c10,0 19,4 27,11 7,8 11,16 11,27l0 58zm-28 0l0 -18c0,-2 -1,-3 -3,-3l-123 0c-3,0 -5,1 -7,3 -2,2 -3,4 -3,6l0 12c0,3 1,5 3,7 2,1 4,2 7,2l116 0c3,0 5,-1 7,-2 2,-2 3,-4 3,-7z"/>
  <g id="_1636430310736">
   <sodipodi:namedview inkscape:window-height="543" inkscape:window-width="855" inkscape:pageshadow="2" inkscape:pageopacity="0.0" borderopacity="1.0" bordercolor="#666666" pagecolor="#ffffff" id="base" inkscape:zoom="0.374" inkscape:cx="750" inkscape:cy="500" inkscape:window-x="817" inkscape:window-y="476" inkscape:current-layer="svg277"/>
   <rect id="rect279" class="fil6" x="8273" y="170" width="518" height="1036"/>
   <rect id="rect281" class="fil7" x="8791" y="170" width="518" height="1036"/>
   <rect id="rect283" class="fil8" x="9309" y="170" width="518" height="1036"/>
  </g>
 </g>
</svg>
